<svg id="visual" viewBox="0 0 900 600" width="900" height="600" xmlns="http://www.w3.org/2000/svg" xmlns:xlink="http://www.w3.org/1999/xlink" version="1.1"><rect x="0" y="0" width="900" height="600" fill="#12043e"></rect><path d="M0 436L18.8 429.2C37.7 422.3 75.3 408.7 112.8 399.3C150.3 390 187.7 385 225.2 392.2C262.7 399.3 300.3 418.7 337.8 422.8C375.3 427 412.7 416 450.2 402.5C487.7 389 525.3 373 562.8 378.3C600.3 383.7 637.7 410.3 675.2 422C712.7 433.7 750.3 430.3 787.8 422.8C825.3 415.3 862.7 403.7 881.3 397.8L900 392L900 601L881.3 601C862.7 601 825.3 601 787.8 601C750.3 601 712.7 601 675.2 601C637.7 601 600.3 601 562.8 601C525.3 601 487.7 601 450.2 601C412.7 601 375.3 601 337.8 601C300.3 601 262.7 601 225.2 601C187.7 601 150.3 601 112.8 601C75.3 601 37.7 601 18.8 601L0 601Z" fill="#885fff"></path><path d="M0 469L18.8 456.5C37.7 444 75.3 419 112.8 419.2C150.3 419.3 187.7 444.7 225.2 450.5C262.7 456.3 300.3 442.7 337.8 437.5C375.3 432.3 412.7 435.7 450.2 438.7C487.7 441.7 525.3 444.3 562.8 443.3C600.3 442.3 637.7 437.7 675.2 431.8C712.7 426 750.3 419 787.8 425C825.3 431 862.7 450 881.3 459.5L900 469L900 601L881.3 601C862.7 601 825.3 601 787.8 601C750.3 601 712.7 601 675.2 601C637.7 601 600.3 601 562.8 601C525.3 601 487.7 601 450.2 601C412.7 601 375.3 601 337.8 601C300.3 601 262.7 601 225.2 601C187.7 601 150.3 601 112.8 601C75.3 601 37.7 601 18.8 601L0 601Z" fill="#7049e0"></path><path d="M0 502L18.8 503.5C37.7 505 75.3 508 112.8 502.2C150.3 496.3 187.7 481.7 225.2 471.8C262.7 462 300.3 457 337.8 458.5C375.3 460 412.7 468 450.2 472.5C487.7 477 525.3 478 562.8 474.7C600.3 471.3 637.7 463.7 675.2 462.5C712.7 461.3 750.3 466.7 787.8 465.5C825.3 464.3 862.7 456.7 881.3 452.8L900 449L900 601L881.3 601C862.7 601 825.3 601 787.8 601C750.3 601 712.7 601 675.2 601C637.7 601 600.3 601 562.8 601C525.3 601 487.7 601 450.2 601C412.7 601 375.3 601 337.8 601C300.3 601 262.7 601 225.2 601C187.7 601 150.3 601 112.8 601C75.3 601 37.7 601 18.8 601L0 601Z" fill="#5934c1"></path><path d="M0 527L18.8 525.5C37.7 524 75.3 521 112.8 522.7C150.3 524.3 187.7 530.7 225.2 532C262.7 533.3 300.3 529.7 337.8 529.3C375.3 529 412.7 532 450.2 528.3C487.7 524.7 525.3 514.3 562.8 512.7C600.3 511 637.7 518 675.2 514.5C712.7 511 750.3 497 787.8 494C825.3 491 862.7 499 881.3 503L900 507L900 601L881.3 601C862.7 601 825.3 601 787.8 601C750.3 601 712.7 601 675.2 601C637.7 601 600.3 601 562.8 601C525.3 601 487.7 601 450.2 601C412.7 601 375.3 601 337.8 601C300.3 601 262.7 601 225.2 601C187.7 601 150.3 601 112.8 601C75.3 601 37.7 601 18.8 601L0 601Z" fill="#411fa3"></path><path d="M0 536L18.8 538.3C37.7 540.7 75.3 545.3 112.8 548.7C150.3 552 187.7 554 225.2 550.5C262.7 547 300.3 538 337.8 535.5C375.3 533 412.7 537 450.2 543.2C487.7 549.3 525.3 557.7 562.8 555C600.3 552.3 637.7 538.7 675.2 538C712.7 537.3 750.3 549.7 787.8 557C825.3 564.3 862.7 566.7 881.3 567.8L900 569L900 601L881.3 601C862.7 601 825.3 601 787.8 601C750.3 601 712.7 601 675.2 601C637.7 601 600.3 601 562.8 601C525.3 601 487.7 601 450.2 601C412.7 601 375.3 601 337.8 601C300.3 601 262.7 601 225.2 601C187.7 601 150.3 601 112.8 601C75.3 601 37.7 601 18.8 601L0 601Z" fill="#280886"></path></svg>