<svg id="visual" viewBox="0 0 1920 1080" width="1920" height="1080" xmlns="http://www.w3.org/2000/svg"
    xmlns:xlink="http://www.w3.org/1999/xlink" version="1.1">
    <rect x="0" y="0" width="1920" height="1080" fill="#100823"></rect>
    <path
        d="M908 0L983 0L983 180L685 180L685 360L807 360L807 540L529 540L529 720L803 720L803 900L521 900L521 1080L0 1080L0 900L0 900L0 720L0 720L0 540L0 540L0 360L0 360L0 180L0 180L0 0L0 0Z"
        fill="#b300fc"></path>
    <path
        d="M379 0L679 0L679 180L644 180L644 360L504 360L504 540L383 540L383 720L463 720L463 900L609 900L609 1080L0 1080L0 900L0 900L0 720L0 720L0 540L0 540L0 360L0 360L0 180L0 180L0 0L0 0Z"
        fill="#9202d7"></path>
    <path
        d="M348 0L242 0L242 180L438 180L438 360L384 360L384 540L246 540L246 720L574 720L574 900L444 900L444 1080L0 1080L0 900L0 900L0 720L0 720L0 540L0 540L0 360L0 360L0 180L0 180L0 0L0 0Z"
        fill="#7302b3"></path>
    <path
        d="M346 0L143 0L143 180L168 180L168 360L229 360L229 540L175 540L175 720L233 720L233 900L111 900L111 1080L0 1080L0 900L0 900L0 720L0 720L0 540L0 540L0 360L0 360L0 180L0 180L0 0L0 0Z"
        fill="#560090"></path>
</svg>