<svg id="visual" viewBox="0 0 1920 1080" width="1920" height="1080" xmlns="http://www.w3.org/2000/svg"
    xmlns:xlink="http://www.w3.org/1999/xlink" version="1.1">
    <rect x="0" y="0" width="1920" height="1080" fill="#100823"></rect>
    <path
        d="M0 789L274 815L549 759L823 795L1097 620L1371 595L1646 790L1920 785L1920 1081L1646 1081L1371 1081L1097 1081L823 1081L549 1081L274 1081L0 1081Z"
        fill="#b300fc"></path>
    <path
        d="M0 769L274 756L549 845L823 721L1097 893L1371 691L1646 695L1920 789L1920 1081L1646 1081L1371 1081L1097 1081L823 1081L549 1081L274 1081L0 1081Z"
        fill="#9a02e0"></path>
    <path
        d="M0 777L274 850L549 919L823 833L1097 786L1371 790L1646 926L1920 760L1920 1081L1646 1081L1371 1081L1097 1081L823 1081L549 1081L274 1081L0 1081Z"
        fill="#8202c5"></path>
    <path
        d="M0 896L274 982L549 988L823 877L1097 853L1371 908L1646 892L1920 936L1920 1081L1646 1081L1371 1081L1097 1081L823 1081L549 1081L274 1081L0 1081Z"
        fill="#6b01aa"></path>
    <path
        d="M0 1032L274 990L549 1005L823 1039L1097 1044L1371 953L1646 966L1920 956L1920 1081L1646 1081L1371 1081L1097 1081L823 1081L549 1081L274 1081L0 1081Z"
        fill="#560090"></path>
</svg>