<svg id="visual" viewBox="0 0 1920 1080" width="1920" height="1080" xmlns="http://www.w3.org/2000/svg"
    xmlns:xlink="http://www.w3.org/1999/xlink" version="1.1">
    <rect x="0" y="0" width="1920" height="1080" fill="#100823"></rect>
    <path
        d="M0 787L274 761L549 725L823 719L1097 648L1371 805L1646 671L1920 707L1920 1081L1646 1081L1371 1081L1097 1081L823 1081L549 1081L274 1081L0 1081Z"
        fill="#b300fc"></path>
    <path
        d="M0 858L274 710L549 723L823 794L1097 856L1371 753L1646 823L1920 787L1920 1081L1646 1081L1371 1081L1097 1081L823 1081L549 1081L274 1081L0 1081Z"
        fill="#9a02e0"></path>
    <path
        d="M0 885L274 856L549 906L823 823L1097 875L1371 907L1646 908L1920 821L1920 1081L1646 1081L1371 1081L1097 1081L823 1081L549 1081L274 1081L0 1081Z"
        fill="#8202c5"></path>
    <path
        d="M0 924L274 920L549 881L823 902L1097 869L1371 894L1646 916L1920 899L1920 1081L1646 1081L1371 1081L1097 1081L823 1081L549 1081L274 1081L0 1081Z"
        fill="#6b01aa"></path>
    <path
        d="M0 956L274 947L549 1017L823 953L1097 995L1371 1003L1646 948L1920 964L1920 1081L1646 1081L1371 1081L1097 1081L823 1081L549 1081L274 1081L0 1081Z"
        fill="#560090"></path>
</svg>