<svg id="visual" viewBox="0 0 1920 1080" width="1920" height="1080" xmlns="http://www.w3.org/2000/svg"
    xmlns:xlink="http://www.w3.org/1999/xlink" version="1.1">
    <rect width="1920" height="1080" fill="#100823"></rect>
    <g>
        <g transform="translate(565 978)">
            <path d="M0 -78.7L68.2 -39.4L68.2 39.4L0 78.7L-68.2 39.4L-68.2 -39.4Z" fill="none" stroke="#b300fc"
                stroke-width="2"></path>
        </g>
        <g transform="translate(1279 232)">
            <path d="M0 -70L60.6 -35L60.6 35L0 70L-60.6 35L-60.6 -35Z" fill="none" stroke="#b300fc" stroke-width="2">
            </path>
        </g>
        <g transform="translate(1778 173)">
            <path d="M0 -40L34.6 -20L34.6 20L0 40L-34.6 20L-34.6 -20Z" fill="none" stroke="#b300fc" stroke-width="2">
            </path>
        </g>
        <g transform="translate(1759 656)">
            <path d="M0 -61L52.8 -30.5L52.8 30.5L0 61L-52.8 30.5L-52.8 -30.5Z" stroke="#b300fc" fill="none"
                stroke-width="2"></path>
        </g>
        <g transform="translate(1716 996)">
            <path d="M0 -63L54.6 -31.5L54.6 31.5L0 63L-54.6 31.5L-54.6 -31.5Z" stroke="#b300fc" fill="none"
                stroke-width="2"></path>
        </g>
        <g transform="translate(1601 268)">
            <path d="M0 -75L65 -37.5L65 37.5L0 75L-65 37.5L-65 -37.5Z" stroke="#b300fc" fill="none" stroke-width="2">
            </path>
        </g>
        <g transform="translate(1181 820)">
            <path d="M0 -50L43.3 -25L43.3 25L0 50L-43.3 25L-43.3 -25Z" stroke="#b300fc" fill="none" stroke-width="2">
            </path>
        </g>
        <g transform="translate(675 768)">
            <path d="M0 -69L59.8 -34.5L59.8 34.5L0 69L-59.8 34.5L-59.8 -34.5Z" stroke="#b300fc" fill="none"
                stroke-width="2"></path>
        </g>
        <g transform="translate(794 652)">
            <path d="M0 -74L64.1 -37L64.1 37L0 74L-64.1 37L-64.1 -37Z" stroke="#b300fc" fill="none" stroke-width="2">
            </path>
        </g>
        <g transform="translate(130 613)">
            <path d="M0 -49L42.4 -24.5L42.4 24.5L0 49L-42.4 24.5L-42.4 -24.5Z" stroke="#b300fc" fill="none"
                stroke-width="2"></path>
        </g>
        <g transform="translate(1017 402)">
            <path d="M0 -49L42.4 -24.5L42.4 24.5L0 49L-42.4 24.5L-42.4 -24.5Z" stroke="#b300fc" fill="none"
                stroke-width="2"></path>
        </g>
        <g transform="translate(683 278)">
            <path d="M0 -52L45 -26L45 26L0 52L-45 26L-45 -26Z" stroke="#b300fc" fill="none" stroke-width="2"></path>
        </g>
        <g transform="translate(1476 148)">
            <path d="M0 -77L66.7 -38.5L66.7 38.5L0 77L-66.7 38.5L-66.7 -38.5Z" stroke="#b300fc" fill="none"
                stroke-width="2"></path>
        </g>
        <g transform="translate(1539 636)">
            <path d="M0 -69L59.8 -34.5L59.8 34.5L0 69L-59.8 34.5L-59.8 -34.5Z" stroke="#b300fc" fill="none"
                stroke-width="2"></path>
        </g>
        <g transform="translate(80 374)">
            <path d="M0 -61L52.8 -30.5L52.8 30.5L0 61L-52.8 30.5L-52.8 -30.5Z" stroke="#b300fc" fill="none"
                stroke-width="2"></path>
        </g>
        <g transform="translate(809 155)">
            <path d="M0 -64L55.4 -32L55.4 32L0 64L-55.4 32L-55.4 -32Z" stroke="#b300fc" fill="none" stroke-width="2">
            </path>
        </g>
        <g transform="translate(1040 99)">
            <path d="M0 -56L48.5 -28L48.5 28L0 56L-48.5 28L-48.5 -28Z" stroke="#b300fc" fill="none" stroke-width="2">
            </path>
        </g>
        <g transform="translate(1443 432)">
            <path d="M0 -68L58.9 -34L58.9 34L0 68L-58.9 34L-58.9 -34Z" stroke="#b300fc" fill="none" stroke-width="2">
            </path>
        </g>
    </g>
</svg>